<?xml version="1.0" encoding="iso-8859-1"?>
<!-- Generator: Adobe Illustrator 19.0.0, SVG Export Plug-In . SVG Version: 6.00 Build 0)  -->
<svg version="1.1" id="Capa_1" xmlns="http://www.w3.org/2000/svg" xmlns:xlink="http://www.w3.org/1999/xlink" x="0px" y="0px"
	 viewBox="0 0 512 512" style="enable-background:new 0 0 512 512;" xml:space="preserve">
<path style="fill:#2AAD52;" d="M357.025,338.31H332.3c33.404,0,60.483,27.079,60.483,60.483V512h20.604
	c2.276,0,4.121-1.845,4.121-4.121V398.794C417.508,365.39,390.429,338.31,357.025,338.31z"/>
<path style="fill:#2BB4F3;" d="M357.025,338.31H115.199c-4.703,0-8.515-3.812-8.515-8.515v-43.698c0-2.475-2.006-4.481-4.481-4.481
	H43.215c-2.475,0-4.481,2.006-4.481,4.481v52.213v34.123c0,18.683,15.145,33.828,33.828,33.828h34.123h96.436
	c4.981,0,9.019,4.038,9.019,9.019v92.599c0,2.276,1.845,4.121,4.121,4.121h197.127c2.276,0,4.121-1.845,4.121-4.121V398.794
	C417.508,365.39,390.429,338.31,357.025,338.31z"/>
<path style="fill:#1687C4;" d="M357.025,338.31h-25.209c33.404,0,60.484,27.079,60.484,60.483V512h21.088
	c2.276,0,4.121-1.845,4.121-4.121V398.794C417.508,365.39,390.429,338.31,357.025,338.31z"/>
<path style="fill:#F2A077;" d="M258.072,277.548v65.213c0,1.995,0.692,3.929,1.957,5.472l4.734,5.772
	c15.393,18.766,44.104,18.766,59.496,0l4.734-5.772c1.265-1.543,1.957-3.476,1.957-5.472v-65.213L258.072,277.548L258.072,277.548z"
	/>
<path style="fill:#FFCCAA;" d="M399.16,167.169h-7.548v-49.23c0-47.627-38.61-86.237-86.237-86.237h-21.728
	c-47.627,0-86.237,38.61-86.237,86.237v49.23h-7.548c-12.526,0-22.68,10.154-22.68,22.68v10.727c0,12.526,10.154,22.68,22.68,22.68
	h7.688c2.647,51.267,45.045,92.018,96.961,92.018c25.958,0,49.532-10.183,66.954-26.782c17.422-16.598,28.675-39.612,30.007-65.236
	h7.688c12.526,0,22.68-10.154,22.68-22.68v-10.727C421.841,177.323,411.686,167.169,399.16,167.169z"/>
<path style="fill:#F2A077;" d="M399.16,167.169h-7.548v-49.23c0-47.628-38.61-86.237-86.237-86.237h-21.728
	c-0.416,0-0.826,0.026-1.241,0.032c47.053,0.666,84.997,38.994,84.997,86.206v49.23l-0.14,56.088
	c-1.332,25.625-12.585,48.638-30.007,65.236c-14.671,13.977-33.703,23.403-54.848,26.033c3.965,0.493,8.005,0.749,12.103,0.749
	c25.958,0,49.532-10.184,66.954-26.782c17.422-16.599,28.675-39.612,30.007-65.236h7.688c12.526,0,22.68-10.154,22.68-22.681V189.85
	C421.841,177.323,411.686,167.169,399.16,167.169z"/>
<g>
	<path style="fill:#475D6D;" d="M294.511,258.112c-12.492,0-24.252-4.867-33.112-13.706c-4.478-4.478-7.935-9.692-10.281-15.508
		c-1.55-3.841,0.307-8.211,4.148-9.762c3.845-1.552,8.212,0.308,9.762,4.148c1.588,3.935,3.934,7.471,6.972,10.508
		c6.021,6.008,14.019,9.319,22.512,9.319c13.025,0,24.601-7.787,29.489-19.84c1.558-3.838,5.928-5.686,9.77-4.131
		c3.838,1.558,5.688,5.931,4.131,9.77C330.705,246.65,313.673,258.112,294.511,258.112z"/>
	<path style="fill:#475D6D;" d="M245.902,180.957c-4.143,0-7.5-3.357-7.5-7.5v-4.69c0-4.143,3.357-7.5,7.5-7.5s7.5,3.357,7.5,7.5
		v4.69C253.402,177.6,250.045,180.957,245.902,180.957z"/>
	<path style="fill:#475D6D;" d="M343.119,180.957c-4.143,0-7.5-3.357-7.5-7.5v-4.69c0-4.143,3.357-7.5,7.5-7.5s7.5,3.357,7.5,7.5
		v4.69C350.619,177.6,347.262,180.957,343.119,180.957z"/>
</g>
<path style="fill:#F9DC6A;" d="M166.969,0h139.847c46.832,0,84.796,37.965,84.796,84.796v33.143H223.013
	c-30.952,0-56.044-25.092-56.044-56.044V0z"/>
<path style="fill:#E5AC51;" d="M306.816,0h-24.724c46.832,0,84.796,37.965,84.796,84.796v33.143h24.724V84.796
	C391.612,37.965,353.648,0,306.816,0z"/>
<path style="fill:#FFCCAA;" d="M144.898,202.312L144.898,202.312c-4.37-6.244-12.975-7.764-19.219-3.393l-19.04,13.326V187.46
	c0-18.473-14.975-33.448-33.448-33.448l0,0c-18.473,0-33.448,14.975-33.448,33.448v39.791c0,4.745,1.569,9.356,4.462,13.117
	l4.191,5.447v35.801h49.591v-29.628l43.519-30.457C147.749,217.161,149.268,208.556,144.898,202.312z"/>
<path style="fill:#FF5A59;" d="M423.442,442.924c-3.859-27.309-31.492-21.22-36.825-5.477c-5.334-15.743-32.966-21.832-36.825,5.477
	c-4.314,30.53,29.911,45.744,36.825,47.309C393.531,488.669,427.756,473.455,423.442,442.924z"/>
<g>
	<path style="fill:#8BA7BC;" d="M423.432,404.6c-0.82,0-1.655-0.136-2.474-0.422c-3.91-1.366-5.973-5.644-4.606-9.554l6.456-18.478
		c1.366-3.91,5.643-5.974,9.554-4.606c3.91,1.366,5.973,5.644,4.606,9.554l-6.456,18.478
		C429.432,402.663,426.531,404.6,423.432,404.6z"/>
	<path style="fill:#8BA7BC;" d="M390.373,406.472c-2.79,0-5.468-1.563-6.761-4.245l-8.5-17.632
		c-1.799-3.731-0.232-8.214,3.499-10.013c3.731-1.797,8.213-0.232,10.013,3.499l8.5,17.632c1.799,3.731,0.232,8.214-3.499,10.013
		C392.575,406.231,391.466,406.472,390.373,406.472z"/>
	<path style="fill:#8BA7BC;" d="M448.139,426.655c-2.789,0-5.468-1.563-6.761-4.245c-1.799-3.73-0.232-8.214,3.499-10.013
		l17.631-8.5c3.73-1.795,8.214-0.233,10.013,3.499c1.799,3.73,0.232,8.214-3.499,10.013l-17.631,8.5
		C450.341,426.415,449.232,426.655,448.139,426.655z"/>
</g>
<g>
</g>
<g>
</g>
<g>
</g>
<g>
</g>
<g>
</g>
<g>
</g>
<g>
</g>
<g>
</g>
<g>
</g>
<g>
</g>
<g>
</g>
<g>
</g>
<g>
</g>
<g>
</g>
<g>
</g>
</svg>
